<svg width="46" height="52" viewBox="0 0 46 52" fill="none" xmlns="http://www.w3.org/2000/svg">
    <path d="M18.8489 9.64959C18.2936 9.64959 17.7942 9.26368 17.6737 8.69791C17.541 8.08149 17.4746 7.43888 17.4746 6.79104C17.4746 2.98254 19.6993 0 22.5404 0C23.2057 0 23.7435 0.539581 23.7435 1.20314C23.7435 1.86671 23.2039 2.40629 22.5404 2.40629C21.0998 2.40629 19.8826 4.41444 19.8826 6.78929C19.8826 7.2695 19.9315 7.74098 20.0276 8.19325C20.1673 8.84284 19.7534 9.48196 19.1038 9.62165C19.0183 9.64086 18.9327 9.64959 18.8489 9.64959Z" fill="#122f2a"/>
    <path d="M22.5397 0C21.5828 0 20.6975 0.338766 19.9413 0.934226C19.9379 0.990105 19.9326 1.04424 19.9326 1.10012C19.9326 1.97323 20.3639 2.74331 21.0223 3.21653C21.4553 2.70838 21.9809 2.40629 22.5397 2.40629C23.205 2.40629 23.7429 1.86671 23.7429 1.20314C23.7429 0.539581 23.205 0 22.5397 0Z" fill="#ffffff"/>
    <path d="M36.5096 37.9818C35.282 38.3974 31.6411 39.5865 31.6411 34.8228C31.6411 30.3595 34.6865 26.6156 34.6865 26.6156L22.9659 18.7978L23.0008 18.2041L22.5381 18.5114V26.7029C22.7703 26.7029 23.0026 26.8549 23.02 27.157L23.9508 50.0586L23.3466 50.9701C23.2139 51.1709 23.3571 51.4398 23.598 51.4398H26.9682L28.208 41.2419C28.208 41.2419 30.7698 44.3747 36.2075 41.7903L37.0177 42.1098C37.3268 42.232 37.6429 41.9457 37.5503 41.6261L36.5096 37.9818Z" fill="#122f2a"/>
    <path d="M26.5303 7.15793C25.8824 7.00776 25.2363 7.40939 25.0862 8.05724C23.188 16.2191 18.6217 22.006 11.5146 25.2557C6.15543 27.7057 1.27126 27.7301 1.20665 27.7301C1.20491 27.7301 1.20491 27.7301 1.20316 27.7301C0.541344 27.7301 0.00176313 28.2662 1.69128e-05 28.928C-0.00347552 29.5933 0.534359 30.1329 1.19792 30.1364C1.20141 30.1364 1.20491 30.1364 1.21015 30.1364C1.54542 30.1364 6.03145 30.0945 11.3103 27.9606C12.2078 29.4397 13.4372 31.9839 13.4372 34.8232C13.4372 39.5852 9.79804 38.3978 8.5687 37.9822L7.52447 41.6265C7.43366 41.9461 7.74798 42.2324 8.05706 42.1102L8.86731 41.7907C14.305 44.3751 16.8667 41.2423 16.8667 41.2423L18.1065 51.4402H21.4785C21.7195 51.4402 21.8627 51.1731 21.7299 50.9705L21.1257 50.059L22.0565 27.1574C22.0739 26.8553 22.3062 26.7033 22.5384 26.7033V19.4216C24.6217 16.6364 26.3819 13.0968 27.4278 8.60031C27.5798 7.95596 27.1764 7.30811 26.5303 7.15793Z" fill="#FEC107"/>
    <path d="M43.8681 30.1379C43.5101 30.1379 38.4042 30.0907 32.6556 27.4871C27.2424 25.0354 20.2453 19.7688 17.6487 8.60352C17.4985 7.95567 17.9001 7.30957 18.548 7.1594C19.1958 7.00922 19.8419 7.41086 19.9921 8.0587C21.8902 16.2205 26.4566 22.0075 33.5637 25.2572C38.9211 27.7071 43.8052 27.7316 43.8699 27.7316C43.8716 27.7316 43.8716 27.7316 43.8716 27.7316C44.5352 27.7316 45.073 28.2677 45.0765 28.9312C45.0782 29.5948 44.5421 30.1344 43.8786 30.1379C43.8786 30.1379 43.8751 30.1379 43.8681 30.1379Z" fill="#122f2a"/>
    <path d="M26.2314 9.64959C26.1475 9.64959 26.0637 9.64086 25.9782 9.6234C25.3286 9.4837 24.9147 8.84459 25.0527 8.19499C25.1487 7.74447 25.1976 7.27125 25.1976 6.79104C25.1976 4.41444 23.9805 2.40803 22.5381 2.40803C21.8728 2.40803 21.335 1.86845 21.335 1.20489C21.335 0.541327 21.8745 0 22.5399 0C25.3809 0 27.6056 2.98254 27.6056 6.79104C27.6056 7.44063 27.5393 8.08149 27.4066 8.69791C27.2843 9.26193 26.7867 9.64959 26.2314 9.64959Z" fill="#FEC107"/>
    <path d="M32.4657 21.1543C34.8709 20.7608 36.5015 18.4919 36.108 16.0868C35.7144 13.6817 33.4456 12.051 31.0404 12.4446C28.6353 12.8382 27.0046 15.107 27.3982 17.5121C27.7918 19.9172 30.0606 21.5479 32.4657 21.1543Z" fill="#122f2a"/>
    <path d="M33.5518 13.5298C33.5518 13.5508 33.5692 13.5665 33.5884 13.5665C33.6094 13.5665 33.6251 13.549 33.6251 13.5298C33.6251 13.5089 33.6076 13.4932 33.5884 13.4932C33.5675 13.4932 33.5518 13.5089 33.5518 13.5298Z" fill="#122f2a"/>
    <path d="M33.1253 19.2486C32.7185 19.4774 32.2505 19.6101 31.7511 19.6101C30.2022 19.6101 28.9414 18.3493 28.9414 16.8004C28.9414 16.3953 29.0305 16.0094 29.1859 15.6602C30.3471 17.003 31.6603 18.1992 33.1253 19.2486Z" fill="#ffffff"/>
    <path d="M17.7211 17.2285C17.9582 14.8029 16.1841 12.6443 13.7585 12.4072C11.3329 12.17 9.17429 13.9442 8.93717 16.3698C8.70004 18.7954 10.4742 20.9539 12.8998 21.1911C15.3254 21.4282 17.4839 19.6541 17.7211 17.2285Z" fill="#FEC107"/>
    <path d="M11.5304 13.5298C11.5304 13.5508 11.5129 13.5665 11.4937 13.5665C11.4727 13.5665 11.457 13.549 11.457 13.5298C11.457 13.5089 11.4745 13.4932 11.4937 13.4932C11.5129 13.4932 11.5304 13.5089 11.5304 13.5298Z" fill="#FEC107"/>
    <path d="M11.9551 19.2486C12.3619 19.4774 12.8299 19.6101 13.3294 19.6101C14.8782 19.6101 16.139 18.3493 16.139 16.8004C16.139 16.3953 16.05 16.0094 15.8945 15.6602C14.7351 17.003 13.4219 18.1992 11.9551 19.2486Z" fill="#ffffff"/>
</svg>