<svg width="474" height="838" viewBox="0 0 474 838" fill="none" xmlns="http://www.w3.org/2000/svg">
<path d="M328.866 740.97C390.881 678.955 390.881 578.408 328.866 516.393C266.851 454.377 166.304 454.377 104.289 516.392C42.2734 578.408 42.2734 678.955 104.289 740.97C166.304 802.985 266.851 802.985 328.866 740.97Z" fill="#234443"/>
<path d="M54.1201 578.097C50.9059 573.677 54.3813 561.283 61.8744 550.455C69.3675 539.627 78.0258 534.424 81.2199 538.844C84.4341 543.283 80.9587 555.658 73.4656 566.486C65.9926 577.334 57.3344 582.517 54.1201 578.097Z" fill="#234443"/>
<path d="M367.735 618.033C367.735 618.033 372.054 605.357 388.929 598.085L370.809 573.396L350.82 575.305L367.735 618.033Z" fill="#234443"/>
<path d="M312.849 656.845C316.083 661.706 306.822 673.559 292.138 683.342C277.473 693.105 262.949 697.103 259.714 692.241C256.48 687.38 265.741 675.527 280.426 665.744C295.111 655.961 309.615 651.983 312.849 656.845Z" fill="#234443"/>
<path d="M212.47 784.429C214.037 789.873 205.861 794.212 194.189 794.131C182.518 794.051 171.791 789.571 170.224 784.127C168.657 778.683 176.833 774.324 188.504 774.404C200.156 774.505 210.903 778.985 212.47 784.429Z" fill="#234443"/>
<path d="M86.928 711.426C81.5844 712.531 71.7007 704.315 64.8705 693.045C58.0404 681.775 56.8551 671.751 62.1987 670.646C67.5624 669.541 77.426 677.757 84.2562 689.027C91.0864 700.277 92.2716 710.321 86.928 711.426Z" fill="#234443"/>
<path d="M361.85 556.421C367.213 555.396 376.976 564.597 383.606 576.952C390.255 589.306 391.28 600.154 385.916 601.159C380.532 602.183 370.789 592.983 364.16 580.628C357.49 568.273 356.466 557.446 361.85 556.421Z" fill="#234443"/>
<path d="M130.705 527.493C130.986 530.366 128.877 532.937 125.984 533.199C123.112 533.48 120.54 531.37 120.279 528.478C119.998 525.605 122.107 523.034 125 522.773C127.873 522.511 130.424 524.621 130.705 527.493Z" fill="#FF7943"/>
<path d="M269.475 527.493C269.776 530.587 267.506 533.339 264.412 533.641C261.319 533.942 258.566 531.672 258.265 528.578C257.964 525.484 260.234 522.732 263.327 522.431C266.421 522.13 269.173 524.4 269.475 527.493Z" fill="#FF7943"/>
<path d="M57.9654 580.749C57.7645 580.769 57.5837 580.769 57.3828 580.769C55.6351 580.789 54.2088 580.086 53.2244 578.72C49.7089 573.878 53.1039 561.162 60.9586 549.812C66.7442 541.435 73.2529 536.152 77.9537 536.152C79.7014 536.131 81.1277 536.835 82.1121 538.18C85.6276 543.042 82.2326 555.738 74.3779 567.108C68.8334 575.164 62.626 580.307 57.9654 580.749ZM77.6323 538.401C74.3377 538.723 68.6124 542.68 62.8068 551.077C54.9721 562.428 52.461 573.878 55.0324 577.434C55.5949 578.197 56.3583 578.559 57.3828 578.559C60.6171 578.539 66.5634 574.581 72.59 565.863C80.4246 554.513 82.9357 543.062 80.3643 539.486C79.8018 538.723 79.0385 538.361 78.034 538.361C77.8733 538.381 77.7528 538.381 77.6323 538.401Z" fill="#FF7943"/>
<path d="M99.8053 542.419C94.3211 541.837 86.0646 543.102 82.3482 538.04C81.3036 536.614 79.0536 538.221 80.0982 539.667C84.4575 545.613 92.8747 544.448 99.3232 545.151C101.091 545.332 101.593 542.6 99.8053 542.419Z" fill="#FF7943"/>
<path d="M66.2258 594.931C65.7236 587.82 59.8376 581.753 55.0163 577.032C53.7507 575.787 51.9829 577.936 53.2485 579.162C57.5073 583.34 63.0317 588.905 63.4737 595.192C63.5942 596.96 66.3464 596.699 66.2258 594.931Z" fill="#FF7943"/>
<path d="M266.828 695.375C263.131 695.737 260.239 695.014 258.812 692.844C256.924 690.032 258.21 685.632 262.488 680.148C266.466 675.045 272.633 669.601 279.825 664.82C293.144 655.941 309.577 649.934 313.775 656.242C315.643 659.055 314.378 663.454 310.079 668.938C306.101 674.041 299.954 679.485 292.762 684.266C284.024 690.092 273.919 694.692 266.828 695.375ZM305.961 655.961C300.155 656.524 290.994 660.019 281.051 666.648C274.06 671.309 268.073 676.592 264.236 681.494C260.741 685.954 259.415 689.73 260.64 691.599C263.131 695.315 276.41 692.462 291.537 682.398C298.528 677.737 304.514 672.474 308.351 667.552C311.847 663.093 313.172 659.316 311.947 657.448C311.083 656.182 308.974 655.68 305.961 655.961Z" fill="#FF7943"/>
<path d="M243.723 683.664C249.83 684.869 255.294 687.561 258.609 693.025C259.533 694.552 261.763 692.925 260.859 691.398C257.203 685.331 250.975 682.257 244.205 680.911C242.458 680.59 241.976 683.322 243.723 683.664Z" fill="#FF7943"/>
<path d="M304.93 637.279C303.082 644.531 306.959 652.787 311.961 657.91C313.206 659.175 314.954 657.046 313.729 655.78C309.39 651.341 306.075 644.008 307.662 637.761C308.104 636.033 305.372 635.571 304.93 637.279Z" fill="#FF7943"/>
<path d="M198.649 795.056C197.222 795.196 195.716 795.257 194.169 795.257C181.854 795.176 170.866 790.435 169.158 784.469C168.636 782.641 168.998 780.813 170.203 779.206C172.995 775.529 179.986 773.259 188.504 773.34C200.818 773.42 211.807 778.161 213.514 784.148C214.037 785.976 213.675 787.804 212.47 789.411C210.2 792.384 205.097 794.433 198.649 795.056ZM184.245 775.71C178.479 776.273 173.879 778.02 171.971 780.511C171.167 781.576 170.946 782.661 171.288 783.826C172.694 788.728 183.18 792.946 194.189 793.027C201.883 793.067 208.372 791.118 210.702 788.045C211.505 786.98 211.726 785.915 211.385 784.73C209.979 779.828 199.492 775.61 188.484 775.529C187.017 775.529 185.591 775.59 184.245 775.71Z" fill="#FF7943"/>
<path d="M163.557 766.951C167.836 771.592 167.535 778.422 168.841 784.268C169.223 785.975 171.975 785.734 171.593 784.007C170.187 777.699 170.448 770.366 165.807 765.344C164.622 764.038 162.352 765.645 163.557 766.951Z" fill="#FF7943"/>
<path d="M226.106 770.286C219.838 773.52 213.932 776.996 211.2 783.846C210.537 785.493 213.048 786.658 213.711 785.011C216.162 778.844 221.466 775.79 227.09 772.878C228.657 772.054 227.693 769.462 226.106 770.286Z" fill="#FF7943"/>
<path d="M86.5467 712.591C80.6004 713.154 70.8373 705.038 63.9268 693.607C58.6434 684.909 56.5341 676.813 58.4224 672.514C59.1255 670.927 60.351 669.902 61.9782 669.561C67.8842 668.356 78.0492 676.632 85.2008 688.444C90.4841 697.143 92.5934 705.239 90.7051 709.538C90.002 711.145 88.7766 712.169 87.1494 712.491C86.9485 712.551 86.7476 712.571 86.5467 712.591ZM62.8219 671.67C62.6813 671.69 62.5607 671.711 62.4402 671.731C61.5161 671.911 60.8733 672.474 60.4514 673.398C59.1657 676.351 60.3309 683.402 65.8352 692.462C72.9868 704.254 82.3883 711.245 86.7074 710.321C87.6315 710.12 88.2743 709.578 88.6962 708.634C89.9819 705.681 88.8167 698.629 83.3124 689.569C76.3617 678.139 67.2816 671.248 62.8219 671.67Z" fill="#FF7943"/>
<path d="M72.9498 655.338C70.2579 659.918 68.0482 668.054 62.0818 669.26C60.3542 669.601 60.5952 672.373 62.3429 672.012C69.7356 670.525 72.1061 662.188 75.4609 656.483C76.3649 654.977 73.8337 653.811 72.9498 655.338Z" fill="#FF7943"/>
<path d="M107.387 707.328C100.638 704.897 92.803 707.629 86.4348 710.12C84.7876 710.763 85.7518 713.355 87.4192 712.712C92.9838 710.542 100.276 707.69 106.202 709.839C107.89 710.442 109.055 707.931 107.387 707.328Z" fill="#FF7943"/>
<path d="M385.629 602.324C379.662 602.886 369.939 593.786 363.149 581.17C357.987 571.568 356.018 562.548 358.107 558.149C358.83 556.622 360.056 555.638 361.623 555.356C367.448 554.231 377.593 563.492 384.564 576.45C389.727 586.052 391.696 595.072 389.606 599.471C388.883 600.998 387.658 601.982 386.091 602.264C385.95 602.284 385.789 602.304 385.629 602.324ZM362.346 557.466C362.245 557.466 362.145 557.486 362.044 557.506C361.181 557.667 360.558 558.189 360.116 559.093C358.629 562.187 359.614 569.881 365.098 580.106C372.069 593.063 381.41 600.877 385.669 600.074C386.533 599.913 387.155 599.391 387.597 598.507C389.084 595.413 388.1 587.699 382.615 577.474C375.805 564.798 366.765 557.044 362.346 557.466Z" fill="#FF7943"/>
<path d="M374.383 610.058C377.014 605.779 381.112 603.308 386.034 602.545C387.782 602.284 387.541 599.512 385.773 599.793C379.787 600.717 375.046 603.73 371.872 608.893C370.927 610.4 373.459 611.545 374.383 610.058Z" fill="#FF7943"/>
<path d="M345.398 561.664C351.545 564.236 356.849 560.037 362.333 557.727C363.98 557.044 362.996 554.453 361.349 555.136C356.829 557.044 351.666 561.283 346.563 559.153C344.916 558.45 343.751 560.961 345.398 561.664Z" fill="#FF7943"/>
<path d="M151.476 571.448C151.617 572.914 150.532 574.22 149.066 574.361C147.599 574.501 146.293 573.416 146.153 571.95C146.012 570.483 147.097 569.178 148.563 569.037C150.03 568.896 151.336 569.961 151.476 571.448Z" fill="#FF7943"/>
<path d="M70.6249 621.77C70.7655 623.237 69.6807 624.542 68.2142 624.683C66.7477 624.823 65.442 623.739 65.3013 622.272C65.1607 620.806 66.2455 619.5 67.712 619.359C69.1785 619.219 70.4842 620.304 70.6249 621.77Z" fill="#FF7943"/>
<path d="M341.703 571.207C341.843 572.673 340.759 573.979 339.292 574.119C337.826 574.26 336.52 573.175 336.379 571.709C336.239 570.242 337.323 568.937 338.79 568.796C340.256 568.655 341.562 569.74 341.703 571.207Z" fill="#FF7943"/>
<path d="M126.045 619.038C126.326 621.911 124.217 624.482 121.324 624.743C118.451 625.024 115.88 622.915 115.619 620.022C115.338 617.15 117.447 614.578 120.34 614.317C123.192 614.036 125.764 616.145 126.045 619.038Z" fill="#FF7943"/>
<path d="M151.493 750.66C151.834 754.175 149.263 757.289 145.747 757.63C142.232 757.972 139.118 755.401 138.777 751.885C138.435 748.369 141.006 745.256 144.522 744.914C148.037 744.573 151.151 747.144 151.493 750.66Z" fill="#FF7943"/>
<path d="M244.511 745.597C244.672 747.244 243.467 748.691 241.82 748.852C240.172 749.012 238.726 747.807 238.565 746.16C238.404 744.512 239.61 743.066 241.257 742.905C242.884 742.765 244.351 743.97 244.511 745.597Z" fill="#FF7943"/>
<path d="M347.967 664.66C348.208 667.151 346.38 669.36 343.889 669.602C341.398 669.843 339.188 668.014 338.947 665.523C338.706 663.032 340.534 660.823 343.025 660.582C345.536 660.361 347.746 662.189 347.967 664.66Z" fill="#FF7943"/>
<path d="M295.897 583.621C296.198 586.715 293.928 589.467 290.834 589.768C287.741 590.07 284.988 587.8 284.687 584.706C284.386 581.612 286.656 578.86 289.749 578.559C292.843 578.258 295.595 580.527 295.897 583.621Z" fill="#FF7943"/>
<path d="M259.109 615.924C259.249 617.35 258.205 618.616 256.778 618.737C255.352 618.877 254.086 617.833 253.966 616.406C253.825 614.98 254.87 613.714 256.296 613.594C257.702 613.473 258.968 614.518 259.109 615.924Z" fill="#FF7943"/>
<path d="M224.562 678.822C224.923 682.579 222.171 685.913 218.415 686.275C214.658 686.637 211.323 683.884 210.962 680.128C210.6 676.371 213.352 673.036 217.109 672.675C220.865 672.313 224.2 675.065 224.562 678.822Z" fill="#FF7943"/>
<path d="M306.18 733.042C306.38 735.03 304.914 736.798 302.925 736.999C300.936 737.2 299.169 735.734 298.968 733.745C298.767 731.756 300.233 729.988 302.222 729.787C304.231 729.586 305.999 731.053 306.18 733.042Z" fill="#FF7943"/>
<path d="M154.868 377.35C154.868 377.35 124.393 401.778 111.476 420.822C98.5592 439.866 94.8829 455.756 94.8829 455.756C94.8829 455.756 103.36 454.611 105.972 459.212C106.896 460.819 108.162 464.575 108.162 464.575C108.162 464.575 112.099 442.478 129.054 419.155C146.009 395.832 163.506 385.546 163.506 385.546C163.506 385.546 161.035 386.249 157.158 381.508C155.129 379.037 154.868 377.35 154.868 377.35Z" fill="#9CB9DF"/>
<path d="M297.727 406.378C297.727 406.378 304.376 420.681 311.889 452.522C319.362 484.202 319.382 484.383 319.543 494.628C319.543 494.628 325.268 493.302 330.09 491.454C334.911 489.606 339.29 490.57 339.29 490.57C339.29 490.57 329.246 453.647 321.492 430.746C313.737 407.845 307.208 402.059 307.208 402.059C307.208 402.059 305.842 404.892 302.709 405.997C300.519 406.74 297.727 406.378 297.727 406.378Z" fill="#9CB9DF"/>
<path d="M287.825 372.288C280.352 375.843 278.021 386.551 282.622 396.193C287.222 405.836 296.985 410.778 304.458 407.222C311.931 403.666 314.262 392.959 309.661 383.316C305.061 373.694 295.298 368.752 287.825 372.288Z" fill="#FFB846"/>
<path d="M151.678 383.457C155.957 390.528 166.845 391.774 175.985 386.249C185.126 380.705 189.063 370.5 184.784 363.428C180.505 356.357 169.617 355.112 160.477 360.636C151.336 366.16 147.399 376.386 151.678 383.457Z" fill="#FFB846"/>
<path d="M232.959 311.057C232.959 311.057 231.311 317.968 231.11 331.286C230.91 344.625 233.139 352.54 233.139 352.54C233.139 352.54 237.72 355.996 242.802 357.743C246.338 358.949 253.831 366.984 253.831 366.984C253.831 366.984 251.742 345.489 253.992 334.219C256.242 322.95 261.545 312.664 261.545 312.664C261.545 312.664 250.376 315.356 244.289 313.95C238.222 312.564 232.959 311.057 232.959 311.057Z" fill="#234443"/>
<path d="M288.423 121.238C287.88 121.299 287.318 121.138 286.835 120.776L253.528 94.6206C252.845 94.0983 252.544 93.2144 252.745 92.3908C252.926 91.5471 253.589 90.9042 254.432 90.7234L282.637 84.4557L262.608 71.8802C261.905 71.4382 261.504 70.6347 261.584 69.7909C261.664 68.9673 262.207 68.2441 262.97 67.9428L288.161 58.0189L273.697 46.1665C273.095 45.6643 272.793 44.8809 272.914 44.0974C273.035 43.3139 273.577 42.6711 274.3 42.3899L291.737 35.7003L282.778 23.7073C282.396 23.2051 282.255 22.5622 282.376 21.9596C282.496 21.3368 282.878 20.8145 283.4 20.4931L298.125 11.654C299.17 11.0313 300.536 11.3728 301.159 12.4174C301.782 13.462 301.44 14.8281 300.395 15.4508L287.78 23.0243L297.021 35.3789C297.442 35.9414 297.563 36.6445 297.382 37.3275C297.181 37.9904 296.699 38.5328 296.056 38.7739L279.443 45.142L293.887 56.9743C294.489 57.4765 294.791 58.26 294.67 59.0234C294.55 59.8068 294.027 60.4497 293.304 60.7309L268.675 70.4338L289.547 83.5517C290.311 84.0339 290.713 84.9178 290.552 85.8017C290.391 86.6856 289.728 87.3887 288.844 87.5896L259.937 94.018L289.568 117.301C290.532 118.064 290.693 119.45 289.949 120.415C289.547 120.897 289.005 121.178 288.423 121.238Z" fill="#234443"/>
<path d="M306.566 18.0422C301.605 18.5244 297.165 14.8682 296.703 9.90629C296.221 4.94436 299.877 0.524836 304.839 0.0427052C309.801 -0.439425 314.22 3.21673 314.702 8.17865C315.185 13.1406 311.528 17.5802 306.566 18.0422ZM305.261 4.46223C302.729 4.7033 300.861 6.95324 301.102 9.50451C301.343 12.0357 303.593 13.904 306.145 13.6629C308.676 13.4218 310.544 11.1719 310.303 8.62061C310.062 6.06933 307.792 4.22117 305.261 4.46223Z" fill="#234443"/>
<path d="M355.677 276.886C355.677 276.886 348.204 282.25 342.137 288.758C336.091 295.267 325.825 306.075 325.825 306.075C325.825 306.075 319.116 277.127 329.803 224.454C342.198 163.405 356.963 147.334 356.963 147.334C356.963 147.334 357.807 156.152 362.688 160.512C368.233 165.474 373.717 167.242 373.717 167.242C373.717 167.242 361.704 192.875 357.927 226.985C354.171 261.076 355.677 276.886 355.677 276.886Z" fill="#425C5C"/>
<path d="M194.329 118.044C194.329 118.044 169.098 141.227 166.225 207.901C163.352 274.556 173.276 296.935 173.276 296.935C173.276 296.935 184.787 320.358 242.301 324.476C299.815 328.615 325.83 306.095 325.83 306.095C325.83 306.095 319.804 262.563 332.721 211.618C345.638 160.672 356.968 147.354 356.968 147.354C356.968 147.354 349.153 127.707 286.054 115.573C221.047 103.058 194.329 118.044 194.329 118.044Z" fill="#9CB9DF"/>
<path d="M242.681 543.866L225.003 567.37C225.003 567.37 223.617 564.537 219.7 560.459C215.782 556.381 209.695 556.602 209.695 556.602L218.092 548.205C218.092 548.205 223.657 547.843 229.945 547.241C235.791 546.678 242.681 543.866 242.681 543.866Z" fill="#425C5C"/>
<path d="M120.043 513.271C120.043 513.271 128.48 510.338 137.159 509.996C145.837 509.675 149.493 510.438 149.493 510.438C149.493 510.438 148.609 514.777 149.352 518.976C150.096 523.174 151.402 523.616 151.402 523.616C151.402 523.616 145.696 525.625 138.746 526.67C131.795 527.714 123.659 526.067 123.659 526.067C123.659 526.067 124.643 524.681 123.056 519.739C121.489 514.797 120.043 513.271 120.043 513.271Z" fill="#425C5C"/>
<path d="M257.424 532.194C254.431 538.201 248.364 542.921 238.079 546.075C221.506 551.178 188.198 551.781 169.014 541.375C149.487 530.788 146.454 519.317 147.177 512.869C147.981 505.757 153.786 500.112 153.786 500.112C153.786 500.112 170.319 515.621 200.433 524.018C230.546 532.395 257.625 526.268 257.625 526.268C257.625 526.268 259.172 528.699 257.424 532.194Z" fill="#234443"/>
<path d="M145.348 203.602C142.355 203.883 137.855 203.683 134.681 200.669C132.09 198.198 131.146 196.109 131.105 196.029L133.134 195.125C133.134 195.145 133.978 196.933 136.208 199.062C140.346 203 147.819 200.951 147.88 200.93L148.482 203.06C148.342 203.1 147.116 203.442 145.348 203.602Z" fill="#234443"/>
<path d="M160.275 193.156C156.94 194.341 151.235 196.009 151.235 196.009C151.235 196.009 151.275 201.413 150.612 204.225C149.929 207.037 148.121 212.381 148.121 212.381C148.121 212.381 152.701 214.35 155.152 216.017C159.311 218.85 165.88 223.149 165.88 223.149C165.88 223.149 165.859 208.524 167.246 198.66C167.768 194.884 168.531 189.821 168.531 189.821C168.531 189.821 166.723 190.866 160.275 193.156Z" fill="#FFB846"/>
<path d="M152.628 204.767C151.724 209.287 149.695 212.702 148.128 212.381C146.541 212.06 146.018 208.142 146.922 203.622C147.826 199.102 149.855 195.687 151.442 196.009C153.009 196.31 153.552 200.247 152.628 204.767Z" fill="#234443"/>
<path d="M134.324 480.385C134.324 480.385 146.458 506.481 191.939 523.255C237.4 540.029 276.111 520.201 276.111 520.201C276.111 520.201 298.068 473.856 292.644 414.032C286.698 348.402 225.728 322.206 183.14 362.786C143.364 400.653 134.324 480.385 134.324 480.385Z" fill="#9CB9DF"/>
<path d="M299.911 504.552C299.911 504.552 298.264 508.409 290.69 513.572C287.195 515.962 275.403 520.523 275.403 520.523C275.403 520.523 283.94 506.32 290.027 472.45C296.496 436.411 293 403.968 284.262 384.642C275.664 365.638 266.102 357.864 266.102 357.864C266.102 357.864 290.59 371.404 298.907 420.661C307.585 472.089 299.911 504.552 299.911 504.552Z" fill="#425C5C"/>
<path d="M86.5268 465.7C86.5268 465.7 79.5961 463.069 69.7125 467.307C59.8288 471.546 56.8557 483.338 56.8557 483.338C56.8557 483.338 59.4672 485.87 61.3555 489.586C63.2439 493.302 63.4046 494.95 63.4046 494.95C63.4046 494.95 68.4871 487.195 71.8017 483.981C77.969 478.035 82.509 478.095 82.4086 481.43C82.3081 484.785 82.0872 487.677 80.6006 493.945C79.114 500.213 76.9846 503.226 76.9846 503.226C76.9846 503.226 81.1832 505.094 84.317 505.717C89.4999 506.742 93.7186 507.385 93.7186 507.385C93.7186 507.385 95.4462 502.845 96.089 492.218C96.5712 484.222 96.8323 483.318 98.3591 483.439C99.9059 483.559 103 487.517 104.386 493.222C105.772 498.927 105.973 508.289 105.973 508.289C105.973 508.289 110.774 505.396 114.109 503.688C118.086 501.659 122.466 497.842 122.466 497.842C122.466 497.842 122.747 489.184 117.725 480.225C112.682 471.245 107.158 468.834 107.158 468.834C107.158 468.834 102.096 472.932 96.3703 471.245C90.645 469.578 86.5268 465.7 86.5268 465.7Z" fill="#9CB9DF"/>
<path d="M319.726 502.603C319.726 502.603 307.613 501.137 300.18 510.699C292.747 520.261 293.068 527.955 293.068 527.955C293.068 527.955 296.463 529.783 300.039 531.571C303.615 533.379 306.648 536.091 306.648 536.091C306.648 536.091 306.689 530.044 310.907 523.737C315.126 517.429 321.333 515.842 321.333 515.842C321.333 515.842 318.059 519.036 317.697 528.196C317.396 535.669 321.132 538.944 321.132 538.944C321.132 538.944 323.623 538.964 328.063 538.723C331.217 538.542 337.605 537.98 337.605 537.98C337.605 537.98 334.331 532.495 334.873 526.208C335.596 517.71 340.779 515.922 340.779 515.922C340.779 515.922 344.315 518.634 347.328 524.982C350.984 532.716 348.031 536.975 348.031 536.975C348.031 536.975 351.989 536.332 357.774 532.355C361.451 529.824 363.399 526.73 363.399 526.73C363.399 526.73 362.455 516.846 353.917 508.65C346.223 501.257 341.081 501.88 341.081 501.88C341.081 501.88 339.855 509.976 328.666 508.268C318.521 506.762 319.726 502.603 319.726 502.603Z" fill="#9CB9DF"/>
<path d="M110.617 523.255L30.6641 606.201L34.8626 649.934L122.59 528.277L110.617 523.255Z" fill="#9CB9DF"/>
<path d="M204.409 563.573C204.409 563.573 194.305 576.068 179.077 601.059C163.85 626.069 147.437 659.718 147.437 659.718C147.437 659.718 160.375 669.039 160.355 686.114C160.314 703.17 145.75 721.45 145.75 721.45C145.75 721.45 148.824 724.504 160.053 712.109C171.283 699.714 183.316 666.488 187.113 648.147C190.91 629.785 202.641 603.087 209.331 589.829C216.041 576.57 222.65 563.734 222.65 563.734L204.409 563.573Z" fill="#9CB9DF"/>
<path d="M39.628 620.364C41.5565 640.553 36.3335 657.588 23.7579 658.793C13.0506 659.818 2.80531 644.289 0.876793 624.08C-1.05173 603.891 4.63339 585.891 16.6666 584.746C29.4229 583.521 37.6995 600.174 39.628 620.364Z" fill="#FFB846"/>
<path d="M31.4838 628.439C33.2114 643.626 27.5665 656.885 20.0131 657.608C12.8615 658.291 3.56038 644.972 2.29479 631.754C0.828309 616.527 4.62509 602.927 13.6851 601.882C23.2875 600.797 29.7561 613.232 31.4838 628.439Z" fill="#234443"/>
<path d="M147.703 656.745C140.19 655.7 129.784 662.349 122.894 674.523C112.427 692.985 120.222 710.562 125.967 716.328C131.713 722.093 139.708 727.598 148.688 719.341C157.667 711.085 161.524 696.44 161.705 679.746C161.846 669.34 155.598 657.829 147.703 656.745Z" fill="#FFB846"/>
<path d="M134.828 669.36C139.026 667.633 146.278 668.818 150.899 680.248C155.519 691.679 153.932 710.341 148.428 718.477C142.924 726.613 132.498 724.423 124.462 715.102C116.447 705.801 118.737 691.116 122.051 683C125.346 674.905 130.971 670.947 134.828 669.36Z" fill="#234443"/>
<path d="M231.009 421.585C225.605 432.473 213.391 437.415 203.708 432.634C194.025 427.833 190.55 415.117 195.954 404.208C201.358 393.3 213.592 388.358 223.254 393.16C232.937 397.961 236.413 410.697 231.009 421.585Z" fill="#234443"/>
<path d="M217.247 414.695C215.018 419.195 209.975 421.224 205.978 419.255C201.98 417.266 200.554 412.023 202.784 407.523C205.013 403.023 210.056 400.994 214.053 402.963C218.031 404.932 219.477 410.195 217.247 414.695Z" fill="#FFB846"/>
<path d="M206.576 187.792C207.801 200.529 199.284 211.758 187.572 212.883C175.86 214.008 165.374 204.586 164.149 191.85C162.923 179.114 171.441 167.884 183.152 166.759C194.864 165.634 205.351 175.056 206.576 187.792Z" fill="#234443"/>
<path d="M200.978 189.259C202.003 199.966 194.851 209.408 185.008 210.352C175.164 211.296 166.345 203.381 165.301 192.674C164.276 181.967 171.428 172.525 181.291 171.581C191.135 170.637 199.954 178.551 200.978 189.259Z" fill="#FF7943"/>
<path d="M337.502 207.118C338.727 219.854 330.21 231.084 318.498 232.209C306.786 233.333 296.3 223.912 295.074 211.176C293.849 198.439 302.367 187.21 314.078 186.085C325.79 184.96 336.276 194.381 337.502 207.118Z" fill="#234443"/>
<path d="M331.892 208.584C332.917 219.292 325.765 228.733 315.922 229.677C306.078 230.622 297.259 222.707 296.215 211.999C295.19 201.292 302.342 191.85 312.206 190.906C322.049 189.942 330.868 197.877 331.892 208.584Z" fill="#FF7943"/>
<path d="M182.59 277.87L187.773 287.413C187.773 287.413 200.449 266.902 228.191 271.864C255.914 276.806 258.807 303.042 258.807 303.042L272.085 292.676C272.085 292.676 276.003 255.371 236.468 249.143C196.913 242.916 182.59 277.87 182.59 277.87Z" fill="#FFB846"/>
<path d="M258.954 304.689C258.693 304.709 258.412 304.669 258.151 304.568C257.588 304.327 257.206 303.825 257.146 303.222C257.026 302.198 254.032 278.152 227.897 273.491C201.561 268.79 189.306 288.096 189.186 288.296C188.885 288.799 188.322 289.1 187.719 289.08C187.137 289.06 186.594 288.738 186.313 288.216L181.13 278.674C180.889 278.232 180.869 277.71 181.05 277.248C181.191 276.886 196.358 241.148 236.716 247.496C277.335 253.884 273.78 292.455 273.74 292.857C273.699 293.299 273.458 293.72 273.117 294.002L259.838 304.367C259.577 304.548 259.276 304.669 258.954 304.689ZM215.643 269.634C219.52 269.272 223.799 269.393 228.459 270.217C251.582 274.335 258.191 292.937 259.898 300.068L270.465 291.832C270.786 286.689 271.208 256.315 236.174 250.791C201.058 245.266 186.695 272.848 184.405 277.81L187.96 284.359C191.476 280.1 200.536 271.08 215.643 269.634Z" fill="#234443"/>
<path d="M261.744 216.68C261.442 220.899 254.11 223.832 245.371 223.209C236.633 222.586 229.782 218.669 230.084 214.43C230.385 210.211 237.718 207.278 246.456 207.901C255.215 208.544 262.045 212.461 261.744 216.68Z" fill="#234443"/>
<path d="M196.515 279.397C196.174 279.196 194.346 278.031 191.935 274.013C189.404 269.775 189.585 264.873 189.585 264.672L192.9 264.813C192.9 264.853 192.759 268.951 194.788 272.326C196.757 275.62 198.163 276.545 198.183 276.545L196.515 279.397Z" fill="#234443"/>
<path d="M207.6 273.471C207.5 273.33 205.33 270.196 203.341 265.455C201.333 260.614 201.051 255.411 201.031 255.19L204.346 255.029C204.346 255.069 204.607 259.891 206.395 264.19C208.223 268.589 210.272 271.542 210.292 271.562L207.6 273.471Z" fill="#234443"/>
<path d="M217.168 272.185C217.087 271.964 214.998 266.621 214.496 261.297C213.753 253.603 216.565 248.48 216.686 248.259L219.578 249.887C219.558 249.927 217.148 254.366 217.791 260.976C218.253 265.837 220.241 270.92 220.261 270.98L217.168 272.185Z" fill="#234443"/>
<path d="M227.553 272.245C227.533 272.065 227.071 267.866 227.533 260.976C228.015 253.884 231.068 248.119 231.189 247.878L234.122 249.445C234.102 249.505 231.269 254.849 230.847 261.197C230.405 267.766 230.847 271.824 230.847 271.864L227.553 272.245Z" fill="#234443"/>
<path d="M241.716 276.163L238.441 275.6C238.441 275.54 239.426 270.036 240.993 263.406C242.64 256.496 246.477 251.434 246.638 251.213L249.269 253.221C249.229 253.262 245.694 257.982 244.207 264.17C242.68 270.699 241.716 276.123 241.716 276.163Z" fill="#234443"/>
<path d="M252.18 284.881L248.945 284.158C248.985 283.957 250.05 279.357 252.923 273.752C255.816 268.127 261.521 261.98 261.762 261.719L264.193 263.989C264.132 264.049 258.548 270.076 255.876 275.279C253.184 280.502 252.2 284.841 252.18 284.881Z" fill="#234443"/>
<path d="M257.75 294.845L254.797 293.339C254.917 293.098 257.81 287.473 261.546 284.339C265.183 281.305 270.265 278.895 270.486 278.794L271.912 281.808C271.872 281.828 266.991 284.158 263.676 286.91C260.442 289.582 257.77 294.785 257.75 294.845Z" fill="#234443"/>
<path d="M377.28 241.51C376.496 241.59 375.693 241.57 374.849 241.449C370.329 240.787 366.512 236.849 366.352 236.688L367.939 235.162C367.979 235.202 371.414 238.717 375.171 239.28C380.293 240.023 384.251 235.363 384.291 235.322L385.998 236.729C385.818 236.909 382.342 241.028 377.28 241.51Z" fill="#234443"/>
<path d="M179.485 410.416C177.897 410.577 176.391 409.894 175.246 408.427C171.931 404.168 172.012 398.323 175.467 393.18C176.23 392.035 177.214 390.89 178.38 389.845C173.177 385.124 165.563 382.533 159.195 383.899C158.371 384.08 157.588 384.321 156.865 384.622C158.853 387.414 160.26 390.588 161.143 394.225C162.61 400.211 161.545 405.314 158.331 407.905C156.423 409.452 154.032 409.753 151.943 408.729C148.809 407.182 147.061 403.144 147.162 397.64C147.282 391.432 149.532 386.671 153.51 383.939C150.496 380.544 146.338 377.892 140.854 375.783C132.818 372.689 124.723 373.453 120.604 374.196L120.223 372.006C124.562 371.223 133.14 370.399 141.677 373.694C147.644 375.984 152.184 378.977 155.478 382.814C156.483 382.332 157.588 381.97 158.753 381.729C165.864 380.203 174.402 383.156 180.147 388.479C183.703 386.008 188.524 384.622 194.129 386.169C208.533 390.146 208.091 402.461 208.091 402.581L205.881 402.481C205.901 402.039 206.203 391.814 193.547 388.318C188.846 387.033 184.788 388.097 181.734 390.106C183.08 391.613 184.225 393.28 185.069 395.028C187.942 401.055 185.652 407.262 181.895 409.572C181.072 410.075 180.268 410.356 179.485 410.416ZM179.947 391.432C178.882 392.356 177.998 393.401 177.295 394.425C174.402 398.744 174.282 403.606 176.994 407.081C178.259 408.709 179.705 408.307 180.69 407.704C183.261 406.117 185.491 401.175 183.02 395.992C182.257 394.345 181.212 392.818 179.947 391.432ZM154.916 385.667C151.421 387.977 149.492 392.115 149.392 397.7C149.311 402.24 150.617 405.635 152.927 406.76C154.233 407.403 155.699 407.202 156.945 406.197C158.914 404.63 160.481 400.794 158.994 394.767C158.15 391.292 156.804 388.278 154.916 385.667Z" fill="#234443"/>
<path d="M121.247 374.678C119.861 381.388 114.457 385.948 109.174 384.843C103.891 383.758 100.717 377.43 102.083 370.72C103.469 364.011 108.873 359.451 114.156 360.535C119.46 361.64 122.634 367.968 121.247 374.678Z" fill="#234443"/>
<path d="M116.258 375.12C116.319 379.399 113.627 382.914 110.252 382.975C106.877 383.015 104.085 379.58 104.024 375.301C103.964 371.022 106.656 367.506 110.051 367.466C113.426 367.406 116.198 370.841 116.258 375.12Z" fill="#FFB846"/>
<path d="M175.547 48.1954L182.698 47.7334L180.73 53.4988L175.547 48.1954Z" fill="#FFB846"/>
<path d="M181.226 57.2555C181.226 57.2555 173.572 59.5255 173.913 69.9717C174.255 80.4178 182.652 87.248 202.018 84.315C221.383 81.362 226.626 61.8759 226.626 61.8759C226.626 61.8759 222.87 64.7084 214.131 64.8892C206.216 65.0499 196.835 63.3022 199.788 60.9518C203.022 58.4005 204.328 52.5949 200.832 47.7334C196.553 41.7871 186.168 42.8317 182.712 47.7334C181.286 49.7825 180.804 51.8315 180.724 53.4989C180.623 55.7086 181.226 57.2555 181.226 57.2555Z" fill="#9CB9DF"/>
<path d="M189.162 71.7796C189.162 71.7796 191.271 63.6236 201.356 66.898C216 71.6591 223.112 66.0543 223.112 66.0543C223.112 66.0543 217.206 77.1232 205.012 79.8553C189.684 83.2905 188.278 74.13 189.162 71.7796Z" fill="#234443"/>
<path d="M187.558 48.9386C189.065 47.3516 192.259 48.4766 191.234 50.8471C190.812 51.8314 192.319 52.5345 192.741 51.5502C194.549 47.3918 189.065 44.9209 186.272 47.894C185.549 48.6574 186.835 49.7221 187.558 48.9386Z" fill="#234443"/>
<path d="M442.984 168.346L447.926 170.235L444.833 173.509L442.984 168.346Z" fill="#FFB846"/>
<path d="M444.011 176.181C444.011 176.181 438.186 175.337 435.192 182.449C432.199 189.56 435.715 196.752 449.636 200.75C463.558 204.747 473.08 193.276 473.08 193.276C473.08 193.276 469.685 194.02 463.759 191.448C458.395 189.118 452.629 185.04 455.341 184.377C458.294 183.654 460.966 180.159 460.123 175.819C459.078 170.496 451.786 168.005 447.949 170.235C446.362 171.159 445.398 172.404 444.835 173.489C444.072 174.956 444.011 176.181 444.011 176.181Z" fill="#9CB9DF"/>
<path d="M444.853 188.375C444.853 188.375 448.79 183.534 454.556 188.857C462.913 196.571 469.422 195.004 469.422 195.004C469.422 195.004 462.049 200.609 453.009 198.68C441.639 196.27 443.547 189.681 444.853 188.375Z" fill="#234443"/>
<path d="M450.821 172.545C452.328 171.942 454.136 173.69 452.69 174.956C452.107 175.478 452.891 176.422 453.493 175.88C455.984 173.65 453.071 170.295 450.279 171.42C449.556 171.741 450.098 172.846 450.821 172.545Z" fill="#234443"/>
<path d="M383.644 81.1612L378.039 81.8643L380.43 86.0428L383.644 81.1612Z" fill="#FFB846"/>
<path d="M380.615 89.036C380.615 89.036 386.882 89.6387 388.188 97.7947C389.494 105.951 384.01 112.5 368.541 113.122C353.073 113.745 346.082 99.4018 346.082 99.4018C346.082 99.4018 349.417 101.029 356.227 99.8638C362.374 98.7991 369.405 96.0269 366.753 94.6609C363.861 93.1542 361.972 88.8552 363.961 84.5763C366.392 79.3331 374.588 78.5698 378.023 81.8643C379.449 83.2304 380.112 84.7571 380.434 86.0428C380.836 87.7503 380.615 89.036 380.615 89.036Z" fill="#9CB9DF"/>
<path d="M376.637 101.491C376.637 101.491 373.784 95.4844 366.452 99.5424C355.805 105.428 349.457 102.154 349.457 102.154C349.457 102.154 355.704 109.848 365.568 110.149C377.963 110.511 377.661 103.178 376.637 101.491Z" fill="#234443"/>
<path d="M374.439 83.5518C373.033 82.5474 370.722 83.8933 371.868 85.5808C372.35 86.2839 371.285 87.0473 370.803 86.3442C368.774 83.3911 372.671 80.6591 375.263 82.5273C375.966 83.0295 375.122 84.034 374.439 83.5518Z" fill="#234443"/>
<path d="M69.3945 115.352L73.4123 115.091L72.3074 118.325L69.3945 115.352Z" fill="#FFB846"/>
<path d="M72.5847 120.435C72.5847 120.435 68.2857 121.7 68.4665 127.586C68.6674 133.472 73.3882 137.309 84.2763 135.662C95.1845 133.995 98.1175 123.026 98.1175 123.026C98.1175 123.026 96.0082 124.613 91.0864 124.714C86.6468 124.814 81.3434 123.81 83.0107 122.504C84.8388 121.057 85.562 117.803 83.5933 115.071C81.1827 111.716 75.3368 112.319 73.3882 115.071C72.5847 116.216 72.3235 117.381 72.2633 118.325C72.2432 119.571 72.5847 120.435 72.5847 120.435Z" fill="#9CB9DF"/>
<path d="M77.0476 128.611C77.0476 128.611 78.2328 124.01 83.9179 125.859C92.1543 128.53 96.152 125.397 96.152 125.397C96.152 125.397 92.8373 131.624 85.967 133.171C77.3489 135.099 76.5654 129.937 77.0476 128.611Z" fill="#234443"/>
<path d="M76.1456 115.774C76.9893 114.87 78.7973 115.513 78.2147 116.859C77.9737 117.401 78.8174 117.803 79.0585 117.261C80.083 114.91 76.9893 113.544 75.4224 115.191C75.0206 115.613 75.7438 116.196 76.1456 115.774Z" fill="#234443"/>
<path d="M77.0074 92.0693C76.8467 91.989 76.686 91.8684 76.5454 91.6676L75.2195 89.9198C74.8378 89.4377 73.9137 88.9958 73.291 89.0359L71.1013 89.1364C70.579 89.1565 70.2174 88.9556 70.117 88.594C70.0768 88.4132 70.0567 88.1319 70.3379 87.7502L71.5834 85.9423C71.945 85.3999 72.0656 84.4356 71.8446 83.8329L71.0611 81.7839C70.8401 81.2214 71.0209 80.9201 71.1415 80.7794C71.262 80.6388 71.5633 80.458 72.1258 80.6187L74.2351 81.2415C74.8579 81.4223 75.8021 81.2415 76.3244 80.8397L78.0319 79.4536C78.494 79.0719 78.8556 79.1523 79.0163 79.2326C79.177 79.313 79.4582 79.5339 79.4783 80.1165L79.5386 82.3062C79.5587 82.949 80.0207 83.8129 80.5631 84.1544L82.4113 85.3597C82.9135 85.6811 82.9537 86.0427 82.9336 86.2235C82.9135 86.4043 82.793 86.7458 82.2305 86.9467L80.1613 87.6699C79.5386 87.8909 78.8957 88.594 78.7149 89.2167L78.1324 91.326C78.0118 91.768 77.7909 91.9689 77.6301 92.0292C77.4092 92.1698 77.2083 92.1698 77.0074 92.0693Z" fill="#FFB846"/>
<path d="M442.342 237.432C442.162 237.472 441.961 237.452 441.74 237.371L439.65 236.729C439.048 236.548 438.063 236.729 437.561 237.11L435.834 238.476C435.432 238.798 435.01 238.838 434.729 238.617C434.588 238.496 434.407 238.275 434.407 237.793L434.367 235.604C434.367 234.961 433.885 234.097 433.343 233.735L431.515 232.51C431.012 232.168 430.972 231.827 430.992 231.646C431.012 231.465 431.133 231.124 431.715 230.943L433.785 230.24C434.407 230.039 435.07 229.316 435.231 228.693L435.834 226.584C435.994 226.001 436.316 225.861 436.497 225.82C436.677 225.78 437.019 225.8 437.38 226.282L438.706 228.03C439.088 228.552 439.972 228.974 440.615 228.934L442.804 228.834C443.407 228.814 443.648 229.075 443.728 229.235C443.809 229.396 443.909 229.738 443.568 230.22L442.302 232.008C441.921 232.55 441.8 233.494 442.021 234.117L442.784 236.166C442.945 236.608 442.865 236.889 442.784 237.05C442.724 237.291 442.563 237.391 442.342 237.432Z" fill="#FFB846"/>
<path d="M319.902 102.897C319.661 102.937 319.4 102.917 319.099 102.817L316.286 101.953C315.503 101.712 314.157 101.953 313.494 102.475L311.184 104.303C310.641 104.725 310.079 104.806 309.697 104.484C309.516 104.323 309.275 104.022 309.275 103.399L309.235 100.466C309.235 99.6026 308.592 98.4576 307.889 97.9754L305.458 96.3482C304.795 95.9063 304.735 95.4242 304.775 95.1831C304.815 94.942 304.976 94.5001 305.74 94.2389L308.512 93.2947C309.335 93.0135 310.219 92.0693 310.46 91.2457L311.264 88.4132C311.485 87.6498 311.927 87.4489 312.148 87.4087C312.389 87.3686 312.851 87.3887 313.333 88.0315L315.101 90.3819C315.623 91.085 316.788 91.6274 317.652 91.6073L320.585 91.4868C321.389 91.4466 321.71 91.8082 321.811 92.0292C321.931 92.2501 322.052 92.6921 321.59 93.355L319.902 95.7456C319.4 96.4487 319.239 97.7545 319.54 98.558L320.565 101.31C320.786 101.893 320.686 102.274 320.565 102.475C320.404 102.676 320.183 102.837 319.902 102.897Z" fill="#FFB846"/>
<path d="M111.099 233.695C110.918 233.675 110.717 233.595 110.516 233.474L108.608 232.209C108.065 231.847 107.021 231.747 106.418 231.988L104.309 232.851C103.806 233.052 103.364 232.972 103.164 232.651C103.063 232.49 102.963 232.209 103.083 231.747L103.686 229.537C103.867 228.894 103.646 227.889 103.224 227.367L101.757 225.619C101.356 225.137 101.416 224.776 101.496 224.595C101.577 224.414 101.798 224.133 102.42 224.093L104.71 223.992C105.393 223.952 106.257 223.45 106.619 222.887L107.824 220.939C108.146 220.416 108.527 220.356 108.708 220.376C108.889 220.396 109.25 220.517 109.471 221.099L110.275 223.249C110.516 223.892 111.279 224.555 111.922 224.715L114.132 225.278C114.735 225.419 114.895 225.76 114.936 225.941C114.976 226.122 114.976 226.503 114.474 226.885L112.686 228.311C112.163 228.733 111.741 229.657 111.802 230.34L111.962 232.61C112.003 233.092 111.842 233.354 111.701 233.494C111.52 233.655 111.32 233.715 111.099 233.695Z" fill="#FFB846"/>
<path d="M344.749 168.628C344.588 168.527 344.448 168.366 344.327 168.166L343.182 166.177C342.861 165.614 341.957 165.052 341.314 164.992L339.024 164.811C338.481 164.771 338.14 164.509 338.079 164.128C338.059 163.947 338.079 163.646 338.421 163.284L339.948 161.597C340.41 161.094 340.651 160.11 340.51 159.467L339.988 157.237C339.847 156.635 340.068 156.333 340.209 156.213C340.349 156.092 340.691 155.931 341.254 156.193L343.343 157.117C343.965 157.398 344.97 157.338 345.552 156.976L347.501 155.791C348.023 155.469 348.385 155.59 348.546 155.69C348.706 155.791 348.968 156.052 348.887 156.675L348.646 158.945C348.566 159.628 348.947 160.552 349.45 160.994L351.177 162.48C351.659 162.882 351.639 163.264 351.599 163.445C351.559 163.625 351.378 163.947 350.776 164.088L348.546 164.55C347.883 164.69 347.099 165.333 346.838 165.956L345.954 168.065C345.773 168.507 345.512 168.668 345.332 168.728C345.151 168.788 344.95 168.748 344.749 168.628Z" fill="#FFB846"/>
<path d="M455.605 131.845C455.444 131.845 455.284 131.805 455.083 131.725L453.355 130.901C452.873 130.66 451.969 130.7 451.507 130.981L449.839 131.946C449.458 132.166 449.076 132.166 448.855 131.925C448.755 131.805 448.634 131.584 448.674 131.182L448.915 129.274C448.996 128.711 448.694 127.908 448.273 127.526L446.846 126.24C446.445 125.899 446.465 125.577 446.505 125.417C446.545 125.256 446.706 124.995 447.208 124.894L449.096 124.533C449.659 124.432 450.322 123.91 450.543 123.388L451.326 121.64C451.527 121.158 451.848 121.077 451.989 121.077C452.15 121.077 452.451 121.138 452.692 121.58L453.616 123.267C453.897 123.769 454.601 124.231 455.163 124.292L457.071 124.493C457.594 124.553 457.775 124.814 457.815 124.955C457.875 125.095 457.915 125.417 457.554 125.798L456.228 127.184C455.846 127.606 455.605 128.41 455.725 128.972L456.127 130.841C456.208 131.242 456.107 131.463 456.027 131.604C455.946 131.765 455.786 131.845 455.605 131.845Z" fill="#FFB846"/>
<path d="M168.658 148.519C168.517 148.439 168.396 148.318 168.276 148.137L167.231 146.55C166.93 146.088 166.147 145.666 165.604 145.646L163.676 145.606C163.214 145.606 162.912 145.385 162.852 145.084C162.812 144.923 162.832 144.682 163.093 144.361L164.298 142.854C164.66 142.412 164.821 141.568 164.64 141.026L164.097 139.178C163.937 138.675 164.118 138.414 164.238 138.314C164.359 138.213 164.62 138.053 165.122 138.233L166.93 138.916C167.472 139.117 168.296 139.017 168.778 138.695L170.365 137.591C170.787 137.289 171.088 137.37 171.229 137.45C171.37 137.53 171.591 137.731 171.57 138.254L171.49 140.182C171.47 140.745 171.832 141.528 172.274 141.869L173.8 143.035C174.222 143.356 174.222 143.657 174.202 143.818C174.182 143.979 174.041 144.26 173.539 144.401L171.691 144.903C171.149 145.064 170.526 145.626 170.325 146.168L169.702 147.976C169.562 148.358 169.361 148.519 169.22 148.559C169.019 148.639 168.838 148.619 168.658 148.519Z" fill="#FFB846"/>
<path d="M319.279 267.344C319.139 267.263 319.018 267.143 318.898 266.962L317.833 265.355C317.532 264.893 316.748 264.471 316.206 264.451L314.277 264.411C313.815 264.411 313.514 264.19 313.454 263.889C313.413 263.728 313.433 263.487 313.695 263.165L314.9 261.659C315.262 261.217 315.422 260.373 315.241 259.831L314.699 257.982C314.538 257.48 314.719 257.219 314.84 257.119C314.96 257.018 315.221 256.858 315.724 257.038L317.532 257.721C318.074 257.922 318.898 257.822 319.38 257.5L320.967 256.395C321.389 256.094 321.69 256.174 321.831 256.255C321.971 256.335 322.192 256.536 322.172 257.058L322.092 258.987C322.072 259.549 322.433 260.333 322.875 260.674L324.402 261.84C324.824 262.161 324.824 262.462 324.804 262.623C324.784 262.784 324.643 263.065 324.141 263.206L322.293 263.708C321.75 263.868 321.127 264.431 320.927 264.973L320.304 266.781C320.163 267.163 319.962 267.324 319.822 267.364C319.641 267.464 319.46 267.444 319.279 267.344Z" fill="#FF7943"/>
<path d="M369.341 226.744L353.893 212.401C353.531 211.818 353.089 211.397 352.567 211.176L352.266 210.894L352.226 211.055C352.205 211.055 352.205 211.035 352.185 211.035C349.052 210.332 344.933 216.72 342.985 225.338C341.036 233.936 342 241.49 345.114 242.213C345.134 242.213 345.154 242.213 345.154 242.213H345.355C345.496 242.233 345.657 242.233 345.797 242.233L364.741 242.755L369.341 226.744Z" fill="#FFB846"/>
<path d="M364.137 233.936C362.892 238.356 363.173 242.293 364.76 242.755C366.347 243.217 368.677 240.003 369.923 235.583C371.168 231.164 370.887 227.227 369.3 226.764C367.713 226.323 365.383 229.517 364.137 233.936Z" fill="#234443"/>
<path d="M370.832 174.232C370.551 174.956 370.27 175.719 369.969 176.543C374.288 175.96 378.406 175.357 382.323 174.694C381.479 174.052 380.596 173.409 379.712 172.766C376.859 173.268 373.906 173.75 370.832 174.232Z" fill="#FF7943"/>
<path d="M319.156 124.01C321.487 124.794 323.676 125.598 325.745 126.381C381.291 131.925 420.022 143.135 418.977 155.068C418.756 157.619 416.707 160.03 413.111 162.3C414.477 163.384 415.683 164.469 416.667 165.534C423.497 162.44 427.415 158.985 427.756 155.289C428.881 141.97 383.199 129.475 319.156 124.01Z" fill="#FF7943"/>
<path d="M384.946 174.232C395.472 172.344 404.372 170.154 411.302 167.683C410.74 166.659 409.956 165.614 408.952 164.55C402.644 167.483 393.524 170.094 382.254 172.264C383.178 172.927 384.062 173.59 384.946 174.232Z" fill="#FF7943"/>
<path d="M398.131 185.241C397.107 185.422 396.042 185.603 394.957 185.763C402.229 193.538 404.419 199.986 400.201 204.245C394.977 209.508 380.755 210.593 360.947 208.122C360.826 208.685 360.706 209.267 360.606 209.85C383.286 213.064 399.658 212.18 405.444 206.354C410.144 201.573 407.171 194.16 398.131 185.241Z" fill="#FF7943"/>
<path d="M373.718 167.221C373.718 167.221 373.557 167.583 373.256 168.266C375.526 169.773 377.675 171.279 379.684 172.746C380.568 173.389 381.452 174.032 382.296 174.674C386.233 177.647 389.608 180.5 392.441 183.232C393.445 183.051 394.429 182.85 395.374 182.63C392.4 179.938 388.905 177.125 384.947 174.212C384.064 173.569 383.18 172.907 382.235 172.244C376.169 167.945 369.118 163.465 361.223 158.885C361.665 159.447 362.147 159.989 362.669 160.472C368.234 165.454 373.718 167.221 373.718 167.221Z" fill="#FF7943"/>
<path d="M210.374 113.042C212.443 112.64 214.713 112.259 217.204 111.917C184.941 109.125 157.219 109.165 138.496 111.957C139.099 112.801 139.782 113.685 140.525 114.569C156.536 111.515 181.165 110.993 210.374 113.042Z" fill="#FF7943"/>
<path d="M174.1 157.298C153.81 150.789 138.221 143.938 129.282 137.53C127.956 138.113 126.71 138.715 125.605 139.338C136.092 145.847 152.665 152.657 173.577 159.126C173.758 158.503 173.919 157.88 174.1 157.298Z" fill="#FF7943"/>
<path d="M121.324 123.81C123.051 120.093 128.676 117.241 137.335 115.232C136.471 114.308 135.687 113.424 134.964 112.54C123.313 114.649 115.739 117.964 113.63 122.484C111.681 126.682 114.614 131.483 121.525 136.566C122.871 135.983 124.317 135.401 125.884 134.838C121.464 130.881 119.777 127.144 121.324 123.81Z" fill="#FF7943"/>
<path d="M334.845 203.542C334.705 203.522 334.584 203.482 334.444 203.462C334.323 203.924 334.203 204.386 334.082 204.868C334.203 204.888 334.343 204.928 334.464 204.948C343.845 207.078 352.604 208.705 360.579 209.85C360.7 209.267 360.8 208.705 360.921 208.122C353.066 207.138 344.287 205.611 334.845 203.542Z" fill="#FF7943"/>
<path d="M342.882 177.447C342.761 177.467 342.621 177.467 342.5 177.487C342.259 178.13 342.038 178.772 341.797 179.415C341.938 179.415 342.078 179.395 342.219 179.395C352.122 178.652 361.404 177.688 369.961 176.543C370.263 175.719 370.564 174.956 370.825 174.232C362.348 175.518 352.986 176.603 342.882 177.447Z" fill="#FF7943"/>
<path d="M340.107 185.663C339.946 185.663 339.786 185.643 339.645 185.643C339.444 186.225 339.263 186.808 339.062 187.411C339.223 187.411 339.384 187.431 339.545 187.431C349.027 187.873 357.926 188.013 366.122 187.873C366.343 187.149 366.564 186.446 366.785 185.763C358.689 186.045 349.75 186.024 340.107 185.663Z" fill="#FF7943"/>
<path d="M246.335 110.752C247.922 110.812 249.549 110.892 251.216 111.013C192.557 91.7881 142.958 84.978 131.929 96.1072C128.052 100.004 129.378 105.71 134.963 112.56C135.686 113.444 136.469 114.348 137.333 115.252C141.09 119.27 146.172 123.629 152.4 128.209C153.284 128.852 154.168 129.515 155.112 130.178C161.761 134.878 169.576 139.8 178.395 144.842C178.575 144.36 178.776 143.878 178.957 143.436C170.861 138.715 163.73 134.115 157.663 129.716C156.779 129.073 155.875 128.43 155.051 127.787C148.824 123.086 143.942 118.647 140.547 114.609C139.804 113.725 139.101 112.841 138.518 111.997C134.521 106.332 133.858 101.591 137.172 98.2366C147.418 87.8507 192.376 93.6362 246.335 110.752Z" fill="#FF7943"/>
<path d="M242.803 174.212C240.754 173.831 238.705 173.429 236.676 173.027C239.046 174.011 241.457 174.996 243.888 175.98C245.897 176.362 247.946 176.723 249.995 177.085C248.327 176.442 246.68 175.779 245.013 175.116C244.269 174.815 243.546 174.514 242.803 174.212Z" fill="#FF7943"/>
<path d="M416.65 165.534C415.665 164.469 414.46 163.405 413.094 162.3C401.242 152.858 375.146 142.412 340.594 133.211C342.623 134.336 344.411 135.441 345.978 136.506C377.698 145.586 400.619 155.67 408.956 164.53C409.96 165.594 410.744 166.639 411.306 167.663C412.532 169.873 412.773 171.982 411.849 173.951C410.081 177.728 404.295 180.641 395.376 182.63C394.432 182.83 393.447 183.031 392.443 183.232C385.412 184.558 376.754 185.402 366.769 185.763C366.548 186.446 366.327 187.15 366.106 187.873C377.155 187.692 386.898 186.989 394.934 185.763C396.019 185.603 397.083 185.422 398.108 185.241C409.82 183.152 417.393 179.817 419.522 175.297C420.929 172.304 419.864 169.009 416.65 165.534Z" fill="#FF7943"/>
<path d="M155.059 127.767C155.902 128.41 156.786 129.053 157.67 129.696C166.69 128.048 176.996 126.642 188.326 125.557C188.828 124.814 189.31 124.131 189.772 123.508C176.975 124.573 165.324 126.019 155.059 127.767Z" fill="#FF7943"/>
<path d="M118.398 147.374C118.639 144.521 121.17 141.829 125.609 139.338C126.714 138.715 127.94 138.113 129.286 137.53C135.553 134.758 144.332 132.267 155.12 130.178C154.196 129.515 153.292 128.872 152.408 128.209C141.781 130.097 132.821 132.327 125.891 134.838C124.324 135.401 122.897 135.983 121.531 136.566C114.199 139.76 109.98 143.316 109.639 147.153C108.795 156.836 132.681 166.076 170.367 172.505C170.508 171.822 170.628 171.119 170.769 170.456C138.085 164.409 117.654 156.092 118.398 147.374Z" fill="#FF7943"/>
<path d="M242.803 174.212C218.134 164.168 196.378 153.561 178.961 143.416C178.78 143.878 178.579 144.36 178.398 144.822C194.731 154.123 214.498 163.786 236.676 173.027C238.705 173.429 240.754 173.811 242.803 174.212Z" fill="#FF7943"/>
<path d="M250.001 177.085C247.952 176.723 245.923 176.362 243.895 175.98C243.955 176 244.015 176.02 244.075 176.06C246.446 177.005 248.796 177.949 251.147 178.873C252.412 178.933 253.698 178.973 254.963 179.034C253.316 178.391 251.669 177.748 250.001 177.085Z" fill="#FF7943"/>
<path d="M259.778 180.842C258.512 180.801 257.227 180.761 255.961 180.701C283.804 191.328 310.783 199.564 334.106 204.848C334.227 204.365 334.347 203.903 334.468 203.441C312.33 198.6 286.516 190.886 259.778 180.842Z" fill="#FF7943"/>
<path d="M174.1 157.298C173.919 157.88 173.758 158.503 173.577 159.126C193.586 165.293 217.512 171.139 243.889 176C241.458 175.016 239.047 174.031 236.677 173.047C213.113 168.386 191.818 162.963 174.1 157.298Z" fill="#FF7943"/>
<path d="M263.195 179.315C264.199 179.335 265.204 179.375 266.228 179.415C269.241 179.496 272.235 179.556 275.208 179.596C268.197 178.592 261.045 177.467 253.833 176.221C250.097 175.578 246.441 174.915 242.805 174.232C243.548 174.534 244.271 174.835 245.014 175.136C246.682 175.799 248.329 176.462 249.996 177.105C251.041 177.286 252.086 177.487 253.15 177.667C256.525 178.23 259.86 178.772 263.195 179.315Z" fill="#FF7943"/>
<path d="M288.206 181.304C284.128 181.304 280.029 181.283 275.871 181.223C298.491 184.457 319.946 186.507 339.07 187.39C339.271 186.788 339.452 186.205 339.653 185.623C324.024 185.06 306.627 183.614 288.206 181.304Z" fill="#FF7943"/>
<path d="M275.861 181.223C271.662 180.621 267.444 179.978 263.165 179.295C260.413 179.214 257.681 179.114 254.969 179.014C256.576 179.636 258.163 180.239 259.77 180.842C261.859 180.902 263.948 180.982 266.078 181.042C269.352 181.123 272.627 181.183 275.861 181.223Z" fill="#FF7943"/>
<path d="M251.156 178.873C220.581 177.527 192.878 174.514 170.78 170.436C170.64 171.099 170.499 171.802 170.379 172.485C194.284 176.563 223.734 179.496 255.977 180.701C254.35 180.098 252.763 179.496 251.156 178.873Z" fill="#FF7943"/>
<path d="M342.5 177.467C322.452 179.134 299.571 179.917 275.203 179.556C279.582 180.179 283.921 180.761 288.22 181.304C307.325 181.304 325.385 180.641 341.797 179.395C342.038 178.752 342.259 178.109 342.5 177.467Z" fill="#FF7943"/>
<path d="M254.973 179.013C253.707 178.973 252.422 178.913 251.156 178.853C252.763 179.476 254.35 180.078 255.957 180.701C257.223 180.741 258.488 180.801 259.774 180.842C258.167 180.239 256.58 179.636 254.973 179.013Z" fill="#FF7943"/>
<path d="M266.201 179.395C265.177 179.375 264.172 179.335 263.168 179.295C267.427 179.978 271.665 180.621 275.864 181.223C280.022 181.283 284.14 181.304 288.198 181.304C283.919 180.761 279.58 180.199 275.181 179.556C272.228 179.536 269.235 179.476 266.201 179.395Z" fill="#FF7943"/>
<path d="M195.087 182.81C194.364 181.826 192.998 181.585 191.994 182.308L183.958 188.073L179.579 179.194C179.036 178.089 177.71 177.647 176.606 178.19C175.501 178.732 175.059 180.058 175.601 181.163L180.302 190.705L171.664 196.913C170.679 197.616 170.438 199.002 171.161 200.006C171.644 200.669 172.407 200.991 173.17 200.91C173.552 200.87 173.914 200.749 174.255 200.508L182.291 194.743L186.67 203.622C187.092 204.466 187.976 204.928 188.86 204.848C189.121 204.828 189.382 204.747 189.623 204.627C190.728 204.084 191.17 202.758 190.627 201.653L185.927 192.111L194.565 185.904C195.589 185.201 195.81 183.815 195.087 182.81Z" fill="#234443"/>
<path d="M321.168 221.642L310.119 199.203C309.577 198.098 308.251 197.656 307.146 198.198C306.041 198.741 305.599 200.067 306.142 201.171L317.19 223.611C317.612 224.454 318.496 224.916 319.38 224.836C319.641 224.816 319.902 224.736 320.143 224.615C321.248 224.073 321.69 222.747 321.168 221.642Z" fill="#234443"/>
<path d="M325.611 202.819C324.887 201.814 323.521 201.593 322.517 202.316L302.187 216.901C301.203 217.604 300.962 218.99 301.685 219.995C302.167 220.657 302.93 220.979 303.694 220.899C304.075 220.858 304.437 220.738 304.779 220.497L325.108 205.912C326.093 205.189 326.314 203.823 325.611 202.819Z" fill="#234443"/>
<path d="M133.355 187.109C131.567 186.667 129.117 190.464 127.851 195.587C126.606 200.709 127.027 205.209 128.815 205.651C130.603 206.093 133.054 202.296 134.32 197.174C135.565 192.051 135.143 187.551 133.355 187.109Z" fill="#FFB846"/>
<path d="M384.87 225.459C383.082 225.86 382.56 230.36 383.705 235.503C384.85 240.646 387.22 244.503 389.028 244.101C390.816 243.699 391.339 239.199 390.193 234.057C389.048 228.894 386.678 225.057 384.87 225.459Z" fill="#FFB846"/>
<path d="M344.068 497.219C344.63 503.005 338.724 508.309 330.869 509.072C323.035 509.815 316.225 505.737 315.662 499.952C315.1 494.166 321.006 488.863 328.86 488.099C336.715 487.336 343.505 491.414 344.068 497.219Z" fill="#FFB846"/>
<path d="M110.338 468.854C108.028 474.198 100.314 476.006 93.0821 472.872C85.8501 469.758 81.8524 462.888 84.1626 457.544C86.4729 452.201 94.1869 450.393 101.419 453.526C108.651 456.66 112.649 463.511 110.338 468.854Z" fill="#FFB846"/>
<path d="M125.117 529.422C119.472 533.781 112.461 534.183 109.448 530.286C106.455 526.409 108.604 519.719 114.249 515.36C119.894 511 126.905 510.599 129.918 514.496C132.932 518.373 130.782 525.063 125.117 529.422Z" fill="#FFB846"/>
<path d="M222.125 571.862C228.668 566.811 231.158 559.071 227.687 554.574C224.215 550.078 216.097 550.527 209.554 555.578C203.011 560.629 200.521 568.369 203.992 572.866C207.464 577.363 215.582 576.913 222.125 571.862Z" fill="#FFB846"/>
<path d="M314.18 828.825C314.18 833.626 266.751 837.523 208.252 837.523C149.754 837.523 102.324 833.626 102.324 828.825C102.324 824.024 149.754 820.126 208.252 820.126C266.771 820.126 314.18 824.024 314.18 828.825Z" fill="#234443"/>
</svg>
